# xmcd CD database file generated by Grip 3.2.0
# 
# Track frame offsets:
#       183
#       13275
#       27913
#       41498
#       54643
#       68050
#       79683
#       93065
#       106563
#       123233
#       133885
#       151730
#       161533
#       180638
#       205798
#       223153
#       248133
#       264273
#       283715
# 
# Disc length: 4029 seconds
# 
# Revision: 2
# Processed by: cddbd v1.5.2PL0 Copyright (c) Steve Scherf et al.
# Submitted via: Grip 3.2.0
# 
DISCID=fb0fbb13
DTITLE=Chat Baker - The Pacific Years
DYEAR=1990
DGENRE=Jazz
TTITLE0=Bernie´s Tune
TTITLE1=Lulleby of the Leaves
TTITLE2=Sextet
TTITLE3=Maid in Mexiko
TTITLE4=Bea´s Flat
TTITLE5=Bockhanal
TTITLE6=I Get Along Without You Very Well
TTITLE7=There Will Never Be Another You
TTITLE8=Tommyhawk
TTITLE9=The Half Dozens
TTITLE10=Long ago and Far Away
TTITLE11=Rondette
TTITLE12=Summertime
TTITLE13=Lucius Lu
TTITLE14=Not Too Slow
TTITLE15=Tynan Time
TTITLE16=The Movie Star
TTITLE17=Love Nest
TTITLE18=Reunion
EXTD=
EXTT0=
EXTT1=
EXTT2=
EXTT3=
EXTT4=
EXTT5=
EXTT6=
EXTT7=
EXTT8=
EXTT9=
EXTT10=
EXTT11=
EXTT12=
EXTT13=
EXTT14=
EXTT15=
EXTT16=
EXTT17=
EXTT18=
PLAYORDER=
